<svg aria-hidden="true" style="position: absolute; width: 0; height: 0; overflow: hidden;" version="1.1" xmlns="http://www.w3.org/2000/svg" xmlns:xlink="http://www.w3.org/1999/xlink">
<defs>
<symbol id="github" viewBox="0 0 32 32">
<path  d="M32 16c0 8.837-7.163 16-16 16s-16-7.163-16-16c0-8.837 7.163-16 16-16s16 7.163 16 16z"></path>
<path fill="#fff" style="fill: var(--color2, #fff)" d="M16 6.588c-5.17 0-9.412 4.243-9.412 9.412 0 4.412 3.096 8.419 7.206 9.412v-3.114c-0.407 0.090-0.782 0.092-1.197-0.030-0.556-0.165-1.008-0.535-1.343-1.1-0.214-0.36-0.593-0.752-0.988-0.723l-0.097-1.099c0.855-0.073 1.594 0.521 2.033 1.259 0.195 0.328 0.42 0.52 0.708 0.605 0.278 0.082 0.577 0.043 0.926-0.080 0.087-0.698 0.407-0.96 0.648-1.327-2.451-0.366-3.428-1.666-3.816-2.693-0.514-1.363-0.238-3.066 0.67-4.142 0.018-0.020 0.050-0.076 0.038-0.114-0.417-1.259 0.090-2.3 0.11-2.41 0.48 0.142 0.558-0.143 2.088 0.786l0.264 0.159c0.11 0.066 0.076 0.028 0.187 0.020 0.59-0.167 1.268-0.267 1.969-0.278l0.006-0c0.717 0.011 1.404 0.114 2.058 0.299l-0.056-0.014 0.086 0.009c-0.008-0.002 0.023-0.006 0.075-0.037 1.91-1.157 1.842-0.779 2.354-0.945 0.019 0.11 0.52 1.168 0.108 2.41-0.056 0.172 1.656 1.74 0.707 4.257-0.388 1.027-1.365 2.327-3.816 2.693 0.314 0.48 0.692 0.734 0.69 1.722v3.887c4.11-0.993 7.206-5 7.206-9.412 0-5.17-4.242-9.412-9.412-9.412z"></path>
</symbol>
<symbol id="linkedin" viewBox="0 0 32 32">
<path d="M29 0h-26c-1.65 0-3 1.35-3 3v26c0 1.65 1.35 3 3 3h26c1.65 0 3-1.35 3-3v-26c0-1.65-1.35-3-3-3zM12 26h-4v-14h4v14zM10 10c-1.106 0-2-0.894-2-2s0.894-2 2-2c1.106 0 2 0.894 2 2s-0.894 2-2 2zM26 26h-4v-8c0-1.106-0.894-2-2-2s-2 0.894-2 2v8h-4v-14h4v2.481c0.825-1.131 2.087-2.481 3.5-2.481 2.488 0 4.5 2.238 4.5 5v9z"></path>
</symbol>
<symbol id="telegram" viewBox="0 0 33 32">
<path  d="M32.235 16c0 8.837-7.163 16-16 16s-16-7.163-16-16c0-8.837 7.163-16 16-16s16 7.163 16 16z"></path>
<path fill="#fff" style="fill: var(--color2, #fff)" d="M13.102 18.375l-0.317 4.17c0.454 0 0.651-0.183 0.887-0.401l2.13-1.9 4.415 3.017c0.81 0.42 1.38 0.199 1.599-0.695l2.897-12.673h0.001c0.257-1.118-0.433-1.554-1.222-1.28l-17.032 6.086c-1.162 0.42-1.145 1.026-0.198 1.3l4.355 1.264 10.114-5.907c0.476-0.294 0.91-0.131 0.553 0.163l-8.181 6.856z"></path>
</symbol>
<symbol id="map-marker" viewBox="0 0 16 28">
<path d="M12 10c0-2.203-1.797-4-4-4s-4 1.797-4 4 1.797 4 4 4 4-1.797 4-4zM16 10c0 0.953-0.109 1.937-0.516 2.797l-5.688 12.094c-0.328 0.688-1.047 1.109-1.797 1.109s-1.469-0.422-1.781-1.109l-5.703-12.094c-0.406-0.859-0.516-1.844-0.516-2.797 0-4.422 3.578-8 8-8s8 3.578 8 8z"></path>
</symbol>
<symbol id="wink" viewBox="0 0 32 32">
<path d="M16 0c-8.837 0-16 7.163-16 16s7.163 16 16 16c8.837 0 16-7.163 16-16s-7.163-16-16-16zM22 8c1.105 0 2 1.343 2 3s-0.895 3-2 3-2-1.343-2-3 0.895-3 2-3zM11 9.752c1.864 0 3.188 0.698 3.188 1.79 0 0.231 0.119 1.344-0.005 1.55-0.463-0.768-1.713-1.318-3.182-1.318s-2.719 0.55-3.182 1.318c-0.124-0.206-0.005-1.319-0.005-1.55 0-1.092 1.324-1.79 3.187-1.79zM15.636 26c-3.726 0-6.996-2.009-8.84-5.030 2.2 1.721 6.079 2.057 10.165 1.249 4.383-0.866 7.785-2.861 9.014-5.519-0.677 5.249-5.047 9.299-10.339 9.299z"></path>
</symbol>
<symbol id="email" viewBox="0 0 32 32">
<path d="M29 4h-26c-1.657 0-3 1.343-3 3v18c0 1.656 1.343 3 3 3h26c1.657 0 3-1.344 3-3v-18c0-1.657-1.343-3-3-3zM2.741 25.99l-0.731-0.732 8.249-8.248 0.731 0.732-8.249 8.248zM29.259 25.99l-8.249-8.248 0.731-0.732 8.249 8.248-0.731 0.732zM17 19.325v0.675h-2v-0.675l-12.997-12.050 1.272-1.272 12.725 11.798 12.725-11.798 1.272 1.272-12.997 12.050z"></path>
</symbol>
<symbol id="user" viewBox="0 0 32 32">
<path d="M0 32v-3c0-4.484 5.649-6.179 13.099-6.862-1.636-1.014-2.92-3.864-3.589-6.14-0.003 0-0.006 0.002-0.010 0.002-0.068 0-1.5-1.791-1.5-4 0-1.938-0.138-3.554 1.007-3.92-0.001-0.027-0.007-0.053-0.007-0.080 0-2.457 1.271-4.61 3.187-5.859 0.495-1.235 2.004-2.141 3.813-2.141s3.318 0.906 3.813 2.141c1.916 1.249 3.187 3.402 3.187 5.859 0 0.027-0.006 0.053-0.007 0.080 1.145 0.366 1.007 1.982 1.007 3.92 0 2.209-1.588 4-1.5 4-0.004 0-0.007-0.002-0.010-0.002-0.669 2.275-1.953 5.126-3.589 6.14 7.45 0.683 13.099 2.315 13.099 6.862v3h-32z"></path>
</symbol>
<symbol id="phone" viewBox="0 0 32 32">
<path d="M2.126 1.188c1.278-1.281 5.141-1.495 5.17-0.817 0.029 0.677 3.479 8.191 3.509 8.869s-2.274 2.987-2.948 3.663c-0.668 0.669 4.508 6.533 4.606 6.644 0.11 0.099 5.96 5.287 6.628 4.617 0.674-0.676 2.979-2.985 3.653-2.955 0.676 0.029 8.173 3.487 8.849 3.518 0.676 0.029 0.463 3.9-0.815 5.182-1.093 1.095-6.752 5.071-16.592-2.029-1.079-0.622-2.788-2.049-5.38-4.646-0.001-0.001-0.003-0.003-0.005-0.004-0.002-0.003-0.004-0.004-0.006-0.006s-0.004-0.004-0.006-0.006c-0.001-0.002-0.003-0.004-0.004-0.005-2.59-2.598-4.014-4.312-4.635-5.393-7.083-9.864-3.116-15.537-2.024-16.632z"></path>
<symbol id="home" viewBox="0 0 32 32">
<path d="M0 0h32v32h-32z"></path>
</symbol>
<symbol id="icon-circle-up" viewBox="0 0 32 32"><path d="M0 16c0 8.837 7.163 16 16 16s16-7.163 16-16S24.837 0 16 0 0 7.163 0 16zm29 0c0 7.18-5.82 13-13 13S3 23.18 3 16 8.82 3 16 3s13 5.82 13 13z"/><path d="m22.086 20.914 2.829-2.829-8.914-8.914-8.914 8.914 2.828 2.828 6.086-6.086z"/></symbol>
</defs>
</svg>